<mxfile host="app.diagrams.net" agent="Mozilla/5.0 (X11; Linux x86_64; rv:142.0) Gecko/20100101 Firefox/142.0" version="28.2.3">
  <diagram id="ZSuKhf0TKdE3VeI48JGF" name="Page-1">
    <mxGraphModel dx="1426" dy="794" grid="1" gridSize="10" guides="1" tooltips="1" connect="1" arrows="1" fold="1" page="1" pageScale="1" pageWidth="1100" pageHeight="850" math="0" shadow="0">
      <root>
        <mxCell id="0" />
        <mxCell id="1" parent="0" />
        <mxCell id="2" value="Write Service" style="rounded=1;whiteSpace=wrap;html=1;fillColor=#d5e8d4;strokeColor=#82b366;" parent="1" vertex="1">
          <mxGeometry x="20" y="65" width="140" height="60" as="geometry" />
        </mxCell>
        <mxCell id="3" value="&lt;font style=&quot;font-size: 24px;&quot;&gt;Design &lt;font style=&quot;color: rgb(0, 128, 240);&quot;&gt;ANYTHING&lt;/font&gt;&lt;/font&gt;" style="text;html=1;align=center;verticalAlign=middle;resizable=0;points=[];autosize=1;strokeColor=none;fillColor=none;" parent="1" vertex="1">
          <mxGeometry x="245" width="230" height="40" as="geometry" />
        </mxCell>
        <mxCell id="4" value="" style="shape=cylinder3;whiteSpace=wrap;html=1;boundedLbl=1;backgroundOutline=1;size=11;rotation=-90;textDirection=vertical-rl;fillColor=#fff2cc;strokeColor=#d6b656;" parent="1" vertex="1">
          <mxGeometry x="255" y="25" width="60" height="140" as="geometry" />
        </mxCell>
        <mxCell id="11" style="edgeStyle=none;html=1;" parent="1" source="5" target="6" edge="1">
          <mxGeometry relative="1" as="geometry" />
        </mxCell>
        <mxCell id="5" value="Message Queue" style="text;html=1;align=center;verticalAlign=middle;resizable=0;points=[];autosize=1;strokeColor=none;fillColor=none;" parent="1" vertex="1">
          <mxGeometry x="232" y="82" width="110" height="30" as="geometry" />
        </mxCell>
        <mxCell id="12" style="edgeStyle=none;html=1;" parent="1" source="6" target="7" edge="1">
          <mxGeometry relative="1" as="geometry" />
        </mxCell>
        <mxCell id="6" value="Database Updater" style="rounded=1;whiteSpace=wrap;html=1;fillColor=#dae8fc;strokeColor=#6c8ebf;" parent="1" vertex="1">
          <mxGeometry x="430" y="67" width="140" height="60" as="geometry" />
        </mxCell>
        <mxCell id="7" value="Database" style="shape=cylinder3;whiteSpace=wrap;html=1;boundedLbl=1;backgroundOutline=1;size=10;fillColor=#dae8fc;strokeColor=#6c8ebf;" parent="1" vertex="1">
          <mxGeometry x="690" y="57" width="60" height="80" as="geometry" />
        </mxCell>
        <mxCell id="14" style="edgeStyle=none;html=1;" parent="1" source="8" target="9" edge="1">
          <mxGeometry relative="1" as="geometry" />
        </mxCell>
        <mxCell id="8" value="Read Service" style="rounded=1;whiteSpace=wrap;html=1;fillColor=#d5e8d4;strokeColor=#82b366;" parent="1" vertex="1">
          <mxGeometry x="20" y="185" width="140" height="60" as="geometry" />
        </mxCell>
        <mxCell id="9" value="Cache" style="shape=cylinder3;whiteSpace=wrap;html=1;boundedLbl=1;backgroundOutline=1;size=10;fillColor=#f8cecc;strokeColor=#b85450;" parent="1" vertex="1">
          <mxGeometry x="470" y="175" width="60" height="80" as="geometry" />
        </mxCell>
        <mxCell id="10" style="edgeStyle=none;html=1;entryX=0.5;entryY=0;entryDx=0;entryDy=0;entryPerimeter=0;" parent="1" source="2" target="4" edge="1">
          <mxGeometry relative="1" as="geometry" />
        </mxCell>
        <mxCell id="13" style="edgeStyle=none;html=1;entryX=0.5;entryY=0;entryDx=0;entryDy=0;entryPerimeter=0;" parent="1" source="6" target="9" edge="1">
          <mxGeometry relative="1" as="geometry" />
        </mxCell>
        <mxCell id="15" value="&lt;font style=&quot;color: rgb(0, 0, 0);&quot;&gt;Q. How to generate unique id per write transaction?&lt;/font&gt;&lt;div&gt;&lt;font style=&quot;color: rgb(0, 0, 0);&quot;&gt;Q. How to handle the &quot;celebrity problem&quot;?&lt;/font&gt;&lt;/div&gt;" style="text;html=1;align=left;verticalAlign=middle;resizable=0;points=[];autosize=1;strokeColor=none;fillColor=none;" parent="1" vertex="1">
          <mxGeometry x="770" y="67" width="300" height="40" as="geometry" />
        </mxCell>
        <mxCell id="16" value="handle how volumes of read and writes" style="text;html=1;align=left;verticalAlign=middle;resizable=0;points=[];autosize=1;strokeColor=none;fillColor=none;" parent="1" vertex="1">
          <mxGeometry x="3" y="288" width="230" height="30" as="geometry" />
        </mxCell>
        <mxCell id="17" value="&lt;font style=&quot;font-size: 24px;&quot;&gt;Design Whatsapp&lt;/font&gt;" style="text;html=1;align=center;verticalAlign=middle;resizable=0;points=[];autosize=1;strokeColor=none;fillColor=none;" parent="1" vertex="1">
          <mxGeometry x="207" y="318" width="210" height="40" as="geometry" />
        </mxCell>
        <mxCell id="18" value="&lt;font style=&quot;color: rgb(0, 0, 0);&quot;&gt;How do we send messages?&lt;/font&gt;&lt;div&gt;&lt;font style=&quot;color: rgb(0, 0, 0);&quot;&gt;How do we store messages?&lt;/font&gt;&lt;/div&gt;&lt;div&gt;&lt;font style=&quot;color: rgb(0, 0, 0);&quot;&gt;How o we deliver messages(real-time)?&lt;/font&gt;&lt;/div&gt;&lt;div&gt;&lt;font style=&quot;color: rgb(0, 0, 0);&quot;&gt;How do we handle reads?&lt;/font&gt;&lt;/div&gt;&lt;div&gt;&lt;br&gt;&lt;/div&gt;" style="text;html=1;align=left;verticalAlign=middle;resizable=0;points=[];autosize=1;strokeColor=none;fillColor=none;" parent="1" vertex="1">
          <mxGeometry x="3" y="335" width="230" height="90" as="geometry" />
        </mxCell>
        <mxCell id="19" value="Write Service" style="rounded=1;whiteSpace=wrap;html=1;fillColor=#d5e8d4;strokeColor=#82b366;" parent="1" vertex="1">
          <mxGeometry x="10" y="410" width="140" height="60" as="geometry" />
        </mxCell>
        <mxCell id="20" value="" style="shape=cylinder3;whiteSpace=wrap;html=1;boundedLbl=1;backgroundOutline=1;size=11;rotation=-90;textDirection=vertical-rl;fillColor=#fff2cc;strokeColor=#d6b656;" parent="1" vertex="1">
          <mxGeometry x="245" y="370" width="60" height="140" as="geometry" />
        </mxCell>
        <mxCell id="21" style="edgeStyle=none;html=1;" parent="1" source="22" target="24" edge="1">
          <mxGeometry relative="1" as="geometry" />
        </mxCell>
        <mxCell id="22" value="Message Queue" style="text;html=1;align=center;verticalAlign=middle;resizable=0;points=[];autosize=1;strokeColor=none;fillColor=none;" parent="1" vertex="1">
          <mxGeometry x="222" y="427" width="110" height="30" as="geometry" />
        </mxCell>
        <mxCell id="23" style="edgeStyle=none;html=1;" parent="1" source="24" target="25" edge="1">
          <mxGeometry relative="1" as="geometry" />
        </mxCell>
        <mxCell id="24" value="Database Updater" style="rounded=1;whiteSpace=wrap;html=1;fillColor=#dae8fc;strokeColor=#6c8ebf;" parent="1" vertex="1">
          <mxGeometry x="420" y="412" width="140" height="60" as="geometry" />
        </mxCell>
        <mxCell id="25" value="NoSQL&lt;br&gt;Database" style="shape=cylinder3;whiteSpace=wrap;html=1;boundedLbl=1;backgroundOutline=1;size=10;fillColor=#dae8fc;strokeColor=#6c8ebf;" parent="1" vertex="1">
          <mxGeometry x="680" y="402" width="60" height="80" as="geometry" />
        </mxCell>
        <mxCell id="26" style="edgeStyle=none;html=1;entryX=0.5;entryY=0;entryDx=0;entryDy=0;entryPerimeter=0;" parent="1" source="19" target="20" edge="1">
          <mxGeometry relative="1" as="geometry" />
        </mxCell>
        <mxCell id="27" style="edgeStyle=none;html=1;entryX=0.5;entryY=0;entryDx=0;entryDy=0;entryPerimeter=0;" parent="1" source="24" edge="1">
          <mxGeometry relative="1" as="geometry">
            <mxPoint x="490" y="520" as="targetPoint" />
          </mxGeometry>
        </mxCell>
        <mxCell id="28" value="Sender&lt;br&gt;Recepient&lt;br&gt;Timestamps&lt;br&gt;Message Status" style="text;html=1;align=left;verticalAlign=middle;resizable=0;points=[];autosize=1;strokeColor=none;fillColor=none;" parent="1" vertex="1">
          <mxGeometry x="750" y="405" width="110" height="70" as="geometry" />
        </mxCell>
        <mxCell id="29" value="Notification Service" style="rounded=1;whiteSpace=wrap;html=1;fillColor=#d5e8d4;strokeColor=#82b366;" parent="1" vertex="1">
          <mxGeometry x="420" y="520" width="140" height="60" as="geometry" />
        </mxCell>
        <mxCell id="30" value="Online: Websockets&lt;br&gt;Offline: Push Notifications" style="text;html=1;align=left;verticalAlign=middle;resizable=0;points=[];autosize=1;strokeColor=none;fillColor=none;" parent="1" vertex="1">
          <mxGeometry x="590" y="530" width="160" height="40" as="geometry" />
        </mxCell>
        <mxCell id="31" value="&lt;font style=&quot;color: rgb(0, 0, 0);&quot;&gt;Websockets allow 2-way communication&amp;nbsp;&lt;/font&gt;&lt;div&gt;&lt;font style=&quot;color: rgb(0, 0, 0);&quot;&gt;&amp;nbsp; &amp;nbsp;between server and client.&lt;br&gt;Perfect for real time messaging&lt;/font&gt;&lt;div&gt;&lt;font style=&quot;color: rgb(0, 0, 0);&quot;&gt;&lt;br&gt;&lt;/font&gt;&lt;div&gt;&lt;br&gt;&lt;/div&gt;&lt;/div&gt;&lt;/div&gt;" style="text;html=1;align=left;verticalAlign=middle;resizable=0;points=[];autosize=1;strokeColor=none;fillColor=none;fontColor=#000000;" parent="1" vertex="1">
          <mxGeometry x="740" y="490" width="240" height="90" as="geometry" />
        </mxCell>
        <mxCell id="32" value="Cache" style="shape=cylinder3;whiteSpace=wrap;html=1;boundedLbl=1;backgroundOutline=1;size=10;fillColor=#f8cecc;strokeColor=#b85450;" parent="1" vertex="1">
          <mxGeometry x="270" y="510" width="60" height="80" as="geometry" />
        </mxCell>
        <mxCell id="34" style="edgeStyle=none;html=1;" parent="1" source="33" target="32" edge="1">
          <mxGeometry relative="1" as="geometry" />
        </mxCell>
        <mxCell id="33" value="Read Service" style="rounded=1;whiteSpace=wrap;html=1;fillColor=#d5e8d4;strokeColor=#82b366;" parent="1" vertex="1">
          <mxGeometry x="10" y="520" width="140" height="60" as="geometry" />
        </mxCell>
        <mxCell id="35" style="edgeStyle=none;html=1;entryX=1;entryY=0.5;entryDx=0;entryDy=0;entryPerimeter=0;" parent="1" source="29" target="32" edge="1">
          <mxGeometry relative="1" as="geometry" />
        </mxCell>
        <mxCell id="36" value="&lt;font style=&quot;font-size: 24px;&quot;&gt;Design Bit.ly&lt;/font&gt;" style="text;html=1;align=center;verticalAlign=middle;resizable=0;points=[];autosize=1;strokeColor=none;fillColor=none;" parent="1" vertex="1">
          <mxGeometry x="185" y="600" width="160" height="40" as="geometry" />
        </mxCell>
        <mxCell id="37" value="Write Service" style="rounded=1;whiteSpace=wrap;html=1;fillColor=#d5e8d4;strokeColor=#82b366;" parent="1" vertex="1">
          <mxGeometry x="10" y="669" width="140" height="60" as="geometry" />
        </mxCell>
        <mxCell id="38" value="" style="shape=cylinder3;whiteSpace=wrap;html=1;boundedLbl=1;backgroundOutline=1;size=11;rotation=-90;textDirection=vertical-rl;fillColor=#fff2cc;strokeColor=#d6b656;" parent="1" vertex="1">
          <mxGeometry x="245" y="629" width="60" height="140" as="geometry" />
        </mxCell>
        <mxCell id="39" style="edgeStyle=none;html=1;" parent="1" source="40" target="42" edge="1">
          <mxGeometry relative="1" as="geometry" />
        </mxCell>
        <mxCell id="40" value="Message Queue" style="text;html=1;align=center;verticalAlign=middle;resizable=0;points=[];autosize=1;strokeColor=none;fillColor=none;" parent="1" vertex="1">
          <mxGeometry x="222" y="686" width="110" height="30" as="geometry" />
        </mxCell>
        <mxCell id="41" style="edgeStyle=none;html=1;" parent="1" source="42" target="43" edge="1">
          <mxGeometry relative="1" as="geometry" />
        </mxCell>
        <mxCell id="42" value="Database Updater" style="rounded=1;whiteSpace=wrap;html=1;fillColor=#dae8fc;strokeColor=#6c8ebf;" parent="1" vertex="1">
          <mxGeometry x="420" y="671" width="140" height="60" as="geometry" />
        </mxCell>
        <mxCell id="62" style="edgeStyle=none;html=1;entryX=1;entryY=0;entryDx=0;entryDy=0;endArrow=none;endFill=0;" parent="1" source="43" target="59" edge="1">
          <mxGeometry relative="1" as="geometry" />
        </mxCell>
        <mxCell id="64" style="edgeStyle=none;html=1;endArrow=none;endFill=0;" parent="1" source="43" target="61" edge="1">
          <mxGeometry relative="1" as="geometry" />
        </mxCell>
        <mxCell id="65" style="edgeStyle=none;html=1;endArrow=none;endFill=0;" parent="1" source="43" target="60" edge="1">
          <mxGeometry relative="1" as="geometry" />
        </mxCell>
        <mxCell id="43" value="NoSQL&lt;br&gt;Database" style="shape=cylinder3;whiteSpace=wrap;html=1;boundedLbl=1;backgroundOutline=1;size=10;fillColor=#dae8fc;strokeColor=#6c8ebf;" parent="1" vertex="1">
          <mxGeometry x="680" y="661" width="60" height="80" as="geometry" />
        </mxCell>
        <mxCell id="44" style="edgeStyle=none;html=1;entryX=0.5;entryY=0;entryDx=0;entryDy=0;entryPerimeter=0;" parent="1" source="37" target="38" edge="1">
          <mxGeometry relative="1" as="geometry" />
        </mxCell>
        <mxCell id="75" style="edgeStyle=none;html=1;entryX=1;entryY=0.5;entryDx=0;entryDy=0;" parent="1" source="50" target="74" edge="1">
          <mxGeometry relative="1" as="geometry" />
        </mxCell>
        <mxCell id="50" value="Cache" style="shape=cylinder3;whiteSpace=wrap;html=1;boundedLbl=1;backgroundOutline=1;size=10;fillColor=#f8cecc;strokeColor=#b85450;" parent="1" vertex="1">
          <mxGeometry x="460" y="769" width="60" height="80" as="geometry" />
        </mxCell>
        <mxCell id="51" style="edgeStyle=none;html=1;" parent="1" source="52" target="50" edge="1">
          <mxGeometry relative="1" as="geometry" />
        </mxCell>
        <mxCell id="52" value="Read Service" style="rounded=1;whiteSpace=wrap;html=1;fillColor=#d5e8d4;strokeColor=#82b366;" parent="1" vertex="1">
          <mxGeometry x="10" y="779" width="140" height="60" as="geometry" />
        </mxCell>
        <mxCell id="55" value="Url ID Generation&lt;br&gt;base62 hashing" style="text;html=1;align=center;verticalAlign=middle;resizable=0;points=[];autosize=1;strokeColor=none;fillColor=none;" parent="1" vertex="1">
          <mxGeometry x="20" y="731" width="120" height="40" as="geometry" />
        </mxCell>
        <mxCell id="56" value="Long URL &lt;br&gt;Short URL" style="text;html=1;align=center;verticalAlign=middle;resizable=0;points=[];autosize=1;strokeColor=none;fillColor=none;" parent="1" vertex="1">
          <mxGeometry x="245" y="632" width="80" height="40" as="geometry" />
        </mxCell>
        <mxCell id="57" style="edgeStyle=none;html=1;entryX=0.5;entryY=0;entryDx=0;entryDy=0;entryPerimeter=0;" parent="1" source="42" target="50" edge="1">
          <mxGeometry relative="1" as="geometry" />
        </mxCell>
        <mxCell id="58" value="Hot URLs&lt;div&gt;&lt;br&gt;&lt;/div&gt;" style="text;html=1;align=center;verticalAlign=middle;resizable=0;points=[];autosize=1;strokeColor=none;fillColor=none;" parent="1" vertex="1">
          <mxGeometry x="514" y="808" width="80" height="40" as="geometry" />
        </mxCell>
        <mxCell id="59" value="" style="ellipse;whiteSpace=wrap;html=1;aspect=fixed;fillColor=#dae8fc;strokeColor=#6c8ebf;" parent="1" vertex="1">
          <mxGeometry x="674.5" y="749" width="21" height="21" as="geometry" />
        </mxCell>
        <mxCell id="60" value="" style="ellipse;whiteSpace=wrap;html=1;aspect=fixed;fillColor=#dae8fc;strokeColor=#6c8ebf;" parent="1" vertex="1">
          <mxGeometry x="725" y="749" width="21" height="21" as="geometry" />
        </mxCell>
        <mxCell id="61" value="" style="ellipse;whiteSpace=wrap;html=1;aspect=fixed;fillColor=#dae8fc;strokeColor=#6c8ebf;" parent="1" vertex="1">
          <mxGeometry x="699.5" y="757" width="21" height="21" as="geometry" />
        </mxCell>
        <mxCell id="68" style="edgeStyle=none;html=1;entryX=1;entryY=0;entryDx=0;entryDy=0;endArrow=none;endFill=0;" parent="1" target="71" edge="1">
          <mxGeometry relative="1" as="geometry">
            <mxPoint x="477.75" y="848" as="sourcePoint" />
          </mxGeometry>
        </mxCell>
        <mxCell id="69" style="edgeStyle=none;html=1;endArrow=none;endFill=0;" parent="1" target="73" edge="1">
          <mxGeometry relative="1" as="geometry">
            <mxPoint x="489.75" y="848" as="sourcePoint" />
          </mxGeometry>
        </mxCell>
        <mxCell id="70" style="edgeStyle=none;html=1;endArrow=none;endFill=0;" parent="1" target="72" edge="1">
          <mxGeometry relative="1" as="geometry">
            <mxPoint x="504.75" y="848" as="sourcePoint" />
          </mxGeometry>
        </mxCell>
        <mxCell id="71" value="" style="ellipse;whiteSpace=wrap;html=1;aspect=fixed;fillColor=#f8cecc;strokeColor=#b85450;" parent="1" vertex="1">
          <mxGeometry x="454.25" y="858" width="21" height="21" as="geometry" />
        </mxCell>
        <mxCell id="72" value="" style="ellipse;whiteSpace=wrap;html=1;aspect=fixed;fillColor=#f8cecc;strokeColor=#b85450;" parent="1" vertex="1">
          <mxGeometry x="504.75" y="858" width="21" height="21" as="geometry" />
        </mxCell>
        <mxCell id="73" value="" style="ellipse;whiteSpace=wrap;html=1;aspect=fixed;fillColor=#f8cecc;strokeColor=#b85450;" parent="1" vertex="1">
          <mxGeometry x="479.25" y="866" width="21" height="21" as="geometry" />
        </mxCell>
        <mxCell id="76" style="edgeStyle=none;html=1;entryX=1;entryY=0.75;entryDx=0;entryDy=0;" parent="1" source="74" target="52" edge="1">
          <mxGeometry relative="1" as="geometry" />
        </mxCell>
        <mxCell id="74" value="Redirect Service" style="rounded=1;whiteSpace=wrap;html=1;fillColor=#d5e8d4;strokeColor=#82b366;" parent="1" vertex="1">
          <mxGeometry x="207" y="844" width="140" height="60" as="geometry" />
        </mxCell>
        <mxCell id="77" value="Write Service" style="rounded=1;whiteSpace=wrap;html=1;fillColor=#d5e8d4;strokeColor=#82b366;" parent="1" vertex="1">
          <mxGeometry x="10" y="995" width="140" height="60" as="geometry" />
        </mxCell>
        <mxCell id="78" value="&lt;font style=&quot;font-size: 24px;&quot;&gt;Design Dropbox&lt;/font&gt;" style="text;html=1;align=center;verticalAlign=middle;resizable=0;points=[];autosize=1;strokeColor=none;fillColor=none;" parent="1" vertex="1">
          <mxGeometry x="155" y="930" width="200" height="40" as="geometry" />
        </mxCell>
        <mxCell id="79" value="" style="shape=cylinder3;whiteSpace=wrap;html=1;boundedLbl=1;backgroundOutline=1;size=11;rotation=-90;textDirection=vertical-rl;fillColor=#fff2cc;strokeColor=#d6b656;" parent="1" vertex="1">
          <mxGeometry x="245" y="955" width="60" height="140" as="geometry" />
        </mxCell>
        <mxCell id="80" style="edgeStyle=none;html=1;" parent="1" source="81" target="83" edge="1">
          <mxGeometry relative="1" as="geometry" />
        </mxCell>
        <mxCell id="81" value="Message Queue" style="text;html=1;align=center;verticalAlign=middle;resizable=0;points=[];autosize=1;strokeColor=none;fillColor=none;" parent="1" vertex="1">
          <mxGeometry x="222" y="1012" width="110" height="30" as="geometry" />
        </mxCell>
        <mxCell id="82" style="edgeStyle=none;html=1;" parent="1" source="83" target="84" edge="1">
          <mxGeometry relative="1" as="geometry" />
        </mxCell>
        <mxCell id="100" style="edgeStyle=none;html=1;entryX=1;entryY=0.5;entryDx=0;entryDy=0;" parent="1" source="83" target="98" edge="1">
          <mxGeometry relative="1" as="geometry" />
        </mxCell>
        <mxCell id="102" style="edgeStyle=none;html=1;" parent="1" source="83" target="101" edge="1">
          <mxGeometry relative="1" as="geometry" />
        </mxCell>
        <mxCell id="83" value="Storage &lt;br&gt;Management &lt;br&gt;Updater" style="rounded=1;whiteSpace=wrap;html=1;fillColor=#dae8fc;strokeColor=#6c8ebf;" parent="1" vertex="1">
          <mxGeometry x="420" y="997" width="140" height="60" as="geometry" />
        </mxCell>
        <mxCell id="84" value="Distributed Storage System" style="shape=cylinder3;whiteSpace=wrap;html=1;boundedLbl=1;backgroundOutline=1;size=10;fillColor=#dae8fc;strokeColor=#6c8ebf;" parent="1" vertex="1">
          <mxGeometry x="680" y="987" width="60" height="80" as="geometry" />
        </mxCell>
        <mxCell id="85" style="edgeStyle=none;html=1;" parent="1" source="86" target="87" edge="1">
          <mxGeometry relative="1" as="geometry" />
        </mxCell>
        <mxCell id="86" value="Read Service" style="rounded=1;whiteSpace=wrap;html=1;fillColor=#d5e8d4;strokeColor=#82b366;" parent="1" vertex="1">
          <mxGeometry x="10" y="1115" width="140" height="60" as="geometry" />
        </mxCell>
        <mxCell id="87" value="Cache" style="shape=cylinder3;whiteSpace=wrap;html=1;boundedLbl=1;backgroundOutline=1;size=10;fillColor=#f8cecc;strokeColor=#b85450;" parent="1" vertex="1">
          <mxGeometry x="460" y="1105" width="60" height="80" as="geometry" />
        </mxCell>
        <mxCell id="88" style="edgeStyle=none;html=1;entryX=0.5;entryY=0;entryDx=0;entryDy=0;entryPerimeter=0;" parent="1" source="77" target="79" edge="1">
          <mxGeometry relative="1" as="geometry" />
        </mxCell>
        <mxCell id="89" style="edgeStyle=none;html=1;entryX=0.5;entryY=0;entryDx=0;entryDy=0;entryPerimeter=0;" parent="1" source="83" target="87" edge="1">
          <mxGeometry relative="1" as="geometry" />
        </mxCell>
        <mxCell id="90" value="&lt;font style=&quot;color: rgb(0, 0, 0);&quot;&gt;Q. How do we manage large files and sync across devices?&lt;/font&gt;&lt;div&gt;&lt;font style=&quot;color: rgb(0, 0, 0);&quot;&gt;Q. How do we ensure high availability and high durability?&lt;br&gt;Q. How do we control access control and permissions?&lt;br&gt;Q. How do we synchronize files across devices&lt;/font&gt;&lt;/div&gt;" style="text;html=1;align=left;verticalAlign=middle;resizable=0;points=[];autosize=1;strokeColor=none;fillColor=none;" parent="1" vertex="1">
          <mxGeometry x="760" y="982" width="340" height="70" as="geometry" />
        </mxCell>
        <mxCell id="91" value="Chunking &lt;br&gt;Mecahnism" style="text;html=1;align=center;verticalAlign=middle;resizable=0;points=[];autosize=1;strokeColor=none;fillColor=none;" parent="1" vertex="1">
          <mxGeometry x="40" y="1050" width="80" height="40" as="geometry" />
        </mxCell>
        <mxCell id="92" style="edgeStyle=none;html=1;entryX=1;entryY=0;entryDx=0;entryDy=0;endArrow=none;endFill=0;" parent="1" target="95" edge="1">
          <mxGeometry relative="1" as="geometry">
            <mxPoint x="696" y="1067" as="sourcePoint" />
          </mxGeometry>
        </mxCell>
        <mxCell id="93" style="edgeStyle=none;html=1;endArrow=none;endFill=0;" parent="1" target="97" edge="1">
          <mxGeometry relative="1" as="geometry">
            <mxPoint x="710" y="1067" as="sourcePoint" />
          </mxGeometry>
        </mxCell>
        <mxCell id="94" style="edgeStyle=none;html=1;endArrow=none;endFill=0;" parent="1" target="96" edge="1">
          <mxGeometry relative="1" as="geometry">
            <mxPoint x="727" y="1067" as="sourcePoint" />
          </mxGeometry>
        </mxCell>
        <mxCell id="95" value="" style="ellipse;whiteSpace=wrap;html=1;aspect=fixed;fillColor=#dae8fc;strokeColor=#6c8ebf;" parent="1" vertex="1">
          <mxGeometry x="674.5" y="1075" width="21" height="21" as="geometry" />
        </mxCell>
        <mxCell id="96" value="" style="ellipse;whiteSpace=wrap;html=1;aspect=fixed;fillColor=#dae8fc;strokeColor=#6c8ebf;" parent="1" vertex="1">
          <mxGeometry x="725" y="1075" width="21" height="21" as="geometry" />
        </mxCell>
        <mxCell id="97" value="" style="ellipse;whiteSpace=wrap;html=1;aspect=fixed;fillColor=#dae8fc;strokeColor=#6c8ebf;" parent="1" vertex="1">
          <mxGeometry x="699.5" y="1083" width="21" height="21" as="geometry" />
        </mxCell>
        <mxCell id="98" value="Metadata Service" style="rounded=1;whiteSpace=wrap;html=1;fillColor=#d5e8d4;strokeColor=#82b366;" parent="1" vertex="1">
          <mxGeometry x="215" y="1170" width="140" height="60" as="geometry" />
        </mxCell>
        <mxCell id="99" style="edgeStyle=none;html=1;entryX=0.012;entryY=0.397;entryDx=0;entryDy=0;entryPerimeter=0;" parent="1" source="86" target="98" edge="1">
          <mxGeometry relative="1" as="geometry" />
        </mxCell>
        <mxCell id="101" value="Sync Service" style="rounded=1;whiteSpace=wrap;html=1;fillColor=#d5e8d4;strokeColor=#82b366;" parent="1" vertex="1">
          <mxGeometry x="606" y="1170" width="140" height="60" as="geometry" />
        </mxCell>
        <mxCell id="103" value="Write Service" style="rounded=1;whiteSpace=wrap;html=1;fillColor=#d5e8d4;strokeColor=#82b366;" parent="1" vertex="1">
          <mxGeometry x="10" y="1411" width="140" height="60" as="geometry" />
        </mxCell>
        <mxCell id="104" value="&lt;font style=&quot;font-size: 24px;&quot;&gt;Design Netflix&lt;/font&gt;" style="text;html=1;align=center;verticalAlign=middle;resizable=0;points=[];autosize=1;strokeColor=none;fillColor=none;" parent="1" vertex="1">
          <mxGeometry x="170" y="1346" width="170" height="40" as="geometry" />
        </mxCell>
        <mxCell id="105" value="" style="shape=cylinder3;whiteSpace=wrap;html=1;boundedLbl=1;backgroundOutline=1;size=11;rotation=-90;textDirection=vertical-rl;fillColor=#fff2cc;strokeColor=#d6b656;" parent="1" vertex="1">
          <mxGeometry x="245" y="1371" width="60" height="140" as="geometry" />
        </mxCell>
        <mxCell id="106" style="edgeStyle=none;html=1;" parent="1" source="107" target="109" edge="1">
          <mxGeometry relative="1" as="geometry" />
        </mxCell>
        <mxCell id="107" value="Message Queue" style="text;html=1;align=center;verticalAlign=middle;resizable=0;points=[];autosize=1;strokeColor=none;fillColor=none;" parent="1" vertex="1">
          <mxGeometry x="222" y="1428" width="110" height="30" as="geometry" />
        </mxCell>
        <mxCell id="118" style="edgeStyle=none;html=1;" parent="1" source="109" target="117" edge="1">
          <mxGeometry relative="1" as="geometry" />
        </mxCell>
        <mxCell id="132" style="edgeStyle=none;html=1;entryX=0.25;entryY=0;entryDx=0;entryDy=0;" parent="1" source="109" target="130" edge="1">
          <mxGeometry relative="1" as="geometry" />
        </mxCell>
        <mxCell id="109" value="Database Updater" style="rounded=1;whiteSpace=wrap;html=1;fillColor=#dae8fc;strokeColor=#6c8ebf;" parent="1" vertex="1">
          <mxGeometry x="420" y="1413" width="140" height="60" as="geometry" />
        </mxCell>
        <mxCell id="110" value="Distributed&lt;br&gt;&amp;nbsp;Video&lt;br&gt;&amp;nbsp;Storage" style="shape=cylinder3;whiteSpace=wrap;html=1;boundedLbl=1;backgroundOutline=1;size=10;fillColor=#dae8fc;strokeColor=#6c8ebf;" parent="1" vertex="1">
          <mxGeometry x="790" y="1403" width="60" height="80" as="geometry" />
        </mxCell>
        <mxCell id="131" style="edgeStyle=none;html=1;" parent="1" source="112" target="130" edge="1">
          <mxGeometry relative="1" as="geometry" />
        </mxCell>
        <mxCell id="138" style="edgeStyle=none;html=1;rounded=0;curved=1;" parent="1" source="112" target="113" edge="1">
          <mxGeometry relative="1" as="geometry">
            <Array as="points">
              <mxPoint x="410" y="1676" />
            </Array>
          </mxGeometry>
        </mxCell>
        <mxCell id="112" value="Read Service" style="rounded=1;whiteSpace=wrap;html=1;fillColor=#d5e8d4;strokeColor=#82b366;" parent="1" vertex="1">
          <mxGeometry x="10" y="1531" width="140" height="60" as="geometry" />
        </mxCell>
        <mxCell id="113" value="Cache" style="shape=cylinder3;whiteSpace=wrap;html=1;boundedLbl=1;backgroundOutline=1;size=10;fillColor=#f8cecc;strokeColor=#b85450;" parent="1" vertex="1">
          <mxGeometry x="560" y="1520" width="60" height="80" as="geometry" />
        </mxCell>
        <mxCell id="114" style="edgeStyle=none;html=1;entryX=0.5;entryY=0;entryDx=0;entryDy=0;entryPerimeter=0;" parent="1" source="103" target="105" edge="1">
          <mxGeometry relative="1" as="geometry" />
        </mxCell>
        <mxCell id="115" style="edgeStyle=none;html=1;entryX=0.5;entryY=0;entryDx=0;entryDy=0;entryPerimeter=0;" parent="1" source="109" target="113" edge="1">
          <mxGeometry relative="1" as="geometry" />
        </mxCell>
        <mxCell id="116" value="&lt;font style=&quot;color: rgb(0, 0, 0);&quot;&gt;Q. How do we handle video uploads and encoding?&lt;/font&gt;&lt;div&gt;&lt;font style=&quot;color: rgb(0, 0, 0);&quot;&gt;Q. How do we manage video storage and delivery?&lt;br&gt;Q. How do we personalize recommendations for each user?&lt;/font&gt;&lt;/div&gt;" style="text;html=1;align=left;verticalAlign=middle;resizable=0;points=[];autosize=1;strokeColor=none;fillColor=none;" parent="1" vertex="1">
          <mxGeometry x="347" y="1343" width="340" height="60" as="geometry" />
        </mxCell>
        <mxCell id="117" value="Content Processor" style="rounded=1;whiteSpace=wrap;html=1;fillColor=#e1d5e7;strokeColor=#9673a6;" parent="1" vertex="1">
          <mxGeometry x="610" y="1413" width="140" height="60" as="geometry" />
        </mxCell>
        <mxCell id="119" style="edgeStyle=none;html=1;entryX=0;entryY=0.5;entryDx=0;entryDy=0;entryPerimeter=0;" parent="1" source="117" target="110" edge="1">
          <mxGeometry relative="1" as="geometry" />
        </mxCell>
        <mxCell id="120" value="CDN" style="sketch=0;outlineConnect=0;fontColor=#232F3E;gradientColor=none;strokeColor=#232F3E;fillColor=#ffffff;dashed=0;verticalLabelPosition=bottom;verticalAlign=top;align=center;html=1;fontSize=12;fontStyle=0;aspect=fixed;shape=mxgraph.aws4.resourceIcon;resIcon=mxgraph.aws4.internet;" parent="1" vertex="1">
          <mxGeometry x="687" y="1541" width="85" height="85" as="geometry" />
        </mxCell>
        <mxCell id="121" style="edgeStyle=none;html=1;entryX=1;entryY=0;entryDx=0;entryDy=0;endArrow=none;endFill=0;" parent="1" target="124" edge="1">
          <mxGeometry relative="1" as="geometry">
            <mxPoint x="805.75" y="1483" as="sourcePoint" />
          </mxGeometry>
        </mxCell>
        <mxCell id="122" style="edgeStyle=none;html=1;endArrow=none;endFill=0;" parent="1" target="126" edge="1">
          <mxGeometry relative="1" as="geometry">
            <mxPoint x="819.75" y="1483" as="sourcePoint" />
          </mxGeometry>
        </mxCell>
        <mxCell id="123" style="edgeStyle=none;html=1;endArrow=none;endFill=0;" parent="1" target="125" edge="1">
          <mxGeometry relative="1" as="geometry">
            <mxPoint x="836.75" y="1483" as="sourcePoint" />
          </mxGeometry>
        </mxCell>
        <mxCell id="124" value="" style="ellipse;whiteSpace=wrap;html=1;aspect=fixed;fillColor=#dae8fc;strokeColor=#6c8ebf;" parent="1" vertex="1">
          <mxGeometry x="784.25" y="1491" width="21" height="21" as="geometry" />
        </mxCell>
        <mxCell id="125" value="" style="ellipse;whiteSpace=wrap;html=1;aspect=fixed;fillColor=#dae8fc;strokeColor=#6c8ebf;" parent="1" vertex="1">
          <mxGeometry x="834.75" y="1491" width="21" height="21" as="geometry" />
        </mxCell>
        <mxCell id="126" value="" style="ellipse;whiteSpace=wrap;html=1;aspect=fixed;fillColor=#dae8fc;strokeColor=#6c8ebf;" parent="1" vertex="1">
          <mxGeometry x="809.25" y="1499" width="21" height="21" as="geometry" />
        </mxCell>
        <mxCell id="127" style="edgeStyle=none;html=1;entryX=0.706;entryY=0.459;entryDx=0;entryDy=0;entryPerimeter=0;" parent="1" source="124" target="120" edge="1">
          <mxGeometry relative="1" as="geometry" />
        </mxCell>
        <mxCell id="128" style="edgeStyle=none;html=1;entryX=0.8;entryY=0.518;entryDx=0;entryDy=0;entryPerimeter=0;" parent="1" source="126" target="120" edge="1">
          <mxGeometry relative="1" as="geometry" />
        </mxCell>
        <mxCell id="129" style="edgeStyle=none;html=1;entryX=0.824;entryY=0.682;entryDx=0;entryDy=0;entryPerimeter=0;" parent="1" source="125" target="120" edge="1">
          <mxGeometry relative="1" as="geometry" />
        </mxCell>
        <mxCell id="130" value="Recommendation Engine" style="rounded=1;whiteSpace=wrap;html=1;fillColor=#e1d5e7;strokeColor=#9673a6;" parent="1" vertex="1">
          <mxGeometry x="370" y="1531" width="140" height="60" as="geometry" />
        </mxCell>
        <mxCell id="137" style="edgeStyle=none;html=1;entryX=0.5;entryY=1;entryDx=0;entryDy=0;rounded=0;curved=1;" parent="1" target="112" edge="1">
          <mxGeometry relative="1" as="geometry">
            <mxPoint x="699.5" y="1526.995525291829" as="sourcePoint" />
            <mxPoint x="99.5" y="1538.65" as="targetPoint" />
            <Array as="points">
              <mxPoint x="370" y="1693" />
            </Array>
          </mxGeometry>
        </mxCell>
      </root>
    </mxGraphModel>
  </diagram>
</mxfile>
